<svg width="409" height="98" viewBox="0 0 409 98" fill="none" xmlns="http://www.w3.org/2000/svg">
<ellipse cx="117.696" cy="49.0019" rx="27.4632" ry="25.7534" transform="rotate(0.520683 117.696 49.0019)" fill="white"/>
<ellipse cx="117.696" cy="49.0019" rx="27.4632" ry="25.7534" transform="rotate(0.520683 117.696 49.0019)" fill="white"/>
<ellipse cx="117.696" cy="49.0019" rx="27.4632" ry="25.7534" transform="rotate(0.520683 117.696 49.0019)" fill="white"/>
<ellipse cx="188.696" cy="49.0019" rx="27.4632" ry="25.7534" transform="rotate(0.520683 188.696 49.0019)" fill="white"/>
<ellipse cx="188.696" cy="49.0019" rx="27.4632" ry="25.7534" transform="rotate(0.520683 188.696 49.0019)" fill="white"/>
<ellipse cx="188.696" cy="49.0019" rx="27.4632" ry="25.7534" transform="rotate(0.520683 188.696 49.0019)" fill="white"/>
<ellipse rx="21.9601" ry="20.3006" transform="matrix(0.999958 0.00912027 -0.00905485 0.999959 193.857 54.5)" fill="black"/>
<ellipse rx="21.9601" ry="20.3006" transform="matrix(0.999958 0.00912027 -0.00905484 0.999959 118.143 54.5)" fill="black"/>
<path d="M65.6 75H58V33.5L58.9 16.1H58.8L37.1 75H30.3L8.6 16.1H8.5L9.4 33.5V75H1.8V9H14.1L28.6 49.1L33.6 65.6H33.8L38.9 49.2L53.3 9H65.6V75ZM113.752 8C119.952 8 125.352 9.4 129.952 12.2C134.552 14.9333 138.085 18.8667 140.552 24C143.085 29.0667 144.352 35.0667 144.352 42C144.352 48.9333 143.085 54.9667 140.552 60.1C138.085 65.1667 134.552 69.1 129.952 71.9C125.352 74.6333 119.952 76 113.752 76C107.552 76 102.152 74.6333 97.5516 71.9C92.9516 69.1 89.3849 65.1667 86.8516 60.1C84.3849 54.9667 83.1516 48.9333 83.1516 42C83.1516 35.0667 84.3849 29.0667 86.8516 24C89.3849 18.8667 92.9516 14.9333 97.5516 12.2C102.152 9.4 107.552 8 113.752 8ZM113.752 15.5C106.885 15.5 101.452 17.8667 97.4516 22.6C93.5182 27.2667 91.5516 33.7333 91.5516 42C91.5516 50.2667 93.5182 56.7667 97.4516 61.5C101.452 66.1667 106.885 68.5 113.752 68.5C120.618 68.5 126.018 66.1667 129.952 61.5C133.952 56.7667 135.952 50.2667 135.952 42C135.952 33.7333 133.952 27.2667 129.952 22.6C126.018 17.8667 120.618 15.5 113.752 15.5ZM188.556 8C194.756 8 200.156 9.4 204.756 12.2C209.356 14.9333 212.89 18.8667 215.356 24C217.89 29.0667 219.156 35.0667 219.156 42C219.156 48.9333 217.89 54.9667 215.356 60.1C212.89 65.1667 209.356 69.1 204.756 71.9C200.156 74.6333 194.756 76 188.556 76C182.356 76 176.956 74.6333 172.356 71.9C167.756 69.1 164.19 65.1667 161.656 60.1C159.19 54.9667 157.956 48.9333 157.956 42C157.956 35.0667 159.19 29.0667 161.656 24C164.19 18.8667 167.756 14.9333 172.356 12.2C176.956 9.4 182.356 8 188.556 8ZM188.556 15.5C181.69 15.5 176.256 17.8667 172.256 22.6C168.323 27.2667 166.356 33.7333 166.356 42C166.356 50.2667 168.323 56.7667 172.256 61.5C176.256 66.1667 181.69 68.5 188.556 68.5C195.423 68.5 200.823 66.1667 204.756 61.5C208.756 56.7667 210.756 50.2667 210.756 42C210.756 33.7333 208.756 27.2667 204.756 22.6C200.823 17.8667 195.423 15.5 188.556 15.5ZM279.661 2V75H272.661L272.161 66.3C270.694 69.2333 268.428 71.6 265.361 73.4C262.361 75.1333 258.928 76 255.061 76C248.061 76 242.494 73.7 238.361 69.1C234.294 64.4333 232.261 58.0667 232.261 50C232.261 41.9333 234.294 35.6 238.361 31C242.494 26.3333 248.061 24 255.061 24C258.728 24 261.994 24.8 264.861 26.4C267.794 28 270.061 30.1333 271.661 32.8V2H279.661ZM255.961 69C260.761 69 264.561 67.3333 267.361 64C270.228 60.6667 271.661 56.2 271.661 50.6V49.4C271.661 43.8 270.228 39.3333 267.361 36C264.561 32.6667 260.761 31 255.961 31C251.094 31 247.261 32.7333 244.461 36.2C241.661 39.6 240.261 44.2 240.261 50C240.261 55.8 241.661 60.4333 244.461 63.9C247.261 67.3 251.094 69 255.961 69ZM302.249 15.4C300.449 15.4 298.983 14.8667 297.849 13.8C296.783 12.6667 296.249 11.2 296.249 9.4C296.249 7.6 296.783 6.16666 297.849 5.09999C298.983 3.96666 300.449 3.4 302.249 3.4C304.049 3.4 305.483 3.96666 306.549 5.09999C307.683 6.16666 308.249 7.6 308.249 9.4C308.249 11.2 307.683 12.6667 306.549 13.8C305.483 14.8667 304.049 15.4 302.249 15.4ZM306.249 75H298.249V25H306.249V75ZM336.712 25H353.412V31.9H336.712V75H328.712V31.9H318.712V25H328.712V16.6C328.712 12 330.112 8.33333 332.912 5.6C335.712 2.86667 339.778 1.5 345.112 1.5C346.912 1.5 348.545 1.7 350.012 2.1C351.545 2.5 352.745 3.06666 353.612 3.8L351.512 10.3C349.912 9.3 348.012 8.79999 345.812 8.79999C339.745 8.79999 336.712 11.6667 336.712 17.4V25ZM383.07 83.4C381.136 88.2 378.97 91.5667 376.57 93.5C374.17 95.5 371.07 96.5 367.27 96.5C364.736 96.5 362.603 96.1667 360.87 95.5C359.203 94.8333 357.67 93.7667 356.27 92.3L359.07 85.5C361.003 88.1667 363.703 89.5 367.17 89.5C369.103 89.5 370.803 88.9 372.27 87.7C373.803 86.5667 375.136 84.4667 376.27 81.4L378.87 74.9L357.97 25H367.07L379.57 57.6L382.67 66.5L386.27 56.6L397.97 25H406.57L383.07 83.4Z" fill="#FF7373"/>
<path d="M65.6 75V76H66.6V75H65.6ZM58 75H57V76H58V75ZM58 33.5L57.0013 33.4483L57 33.4742V33.5H58ZM58.9 16.1L59.8987 16.1517L59.9531 15.1H58.9V16.1ZM58.8 16.1V15.1H58.1027L57.8617 15.7543L58.8 16.1ZM37.1 75V76H37.7973L38.0383 75.3457L37.1 75ZM30.3 75L29.3617 75.3457L29.6027 76H30.3V75ZM8.6 16.1L9.53834 15.7543L9.29729 15.1H8.6V16.1ZM8.5 16.1V15.1H7.44694L7.50134 16.1517L8.5 16.1ZM9.4 33.5H10.4V33.4742L10.3987 33.4483L9.4 33.5ZM9.4 75V76H10.4V75H9.4ZM1.8 75H0.8V76H1.8V75ZM1.8 9V8H0.8V9H1.8ZM14.1 9L15.0404 8.65995L14.8018 8H14.1V9ZM28.6 49.1L29.557 48.81L29.5494 48.7848L29.5404 48.76L28.6 49.1ZM33.6 65.6L32.643 65.89L32.8581 66.6H33.6V65.6ZM33.8 65.6V66.6H34.5363L34.7549 65.8969L33.8 65.6ZM38.9 49.2L37.9586 48.8628L37.9514 48.8828L37.9451 48.903L38.9 49.2ZM53.3 9V8H52.596L52.3586 8.66277L53.3 9ZM65.6 9H66.6V8H65.6V9ZM65.6 74H58V76H65.6V74ZM59 75V33.5H57V75H59ZM58.9987 33.5517L59.8987 16.1517L57.9013 16.0483L57.0013 33.4483L58.9987 33.5517ZM58.9 15.1H58.8V17.1H58.9V15.1ZM57.8617 15.7543L36.1617 74.6543L38.0383 75.3457L59.7383 16.4457L57.8617 15.7543ZM37.1 74H30.3V76H37.1V74ZM31.2383 74.6543L9.53834 15.7543L7.66166 16.4457L29.3617 75.3457L31.2383 74.6543ZM8.6 15.1H8.5V17.1H8.6V15.1ZM7.50134 16.1517L8.40134 33.5517L10.3987 33.4483L9.49867 16.0483L7.50134 16.1517ZM8.4 33.5V75H10.4V33.5H8.4ZM9.4 74H1.8V76H9.4V74ZM2.8 75V9H0.8V75H2.8ZM1.8 10H14.1V8H1.8V10ZM13.1596 9.34005L27.6596 49.44L29.5404 48.76L15.0404 8.65995L13.1596 9.34005ZM27.643 49.39L32.643 65.89L34.557 65.31L29.557 48.81L27.643 49.39ZM33.6 66.6H33.8V64.6H33.6V66.6ZM34.7549 65.8969L39.8549 49.4969L37.9451 48.903L32.8451 65.3031L34.7549 65.8969ZM39.8414 49.5372L54.2414 9.33722L52.3586 8.66277L37.9586 48.8628L39.8414 49.5372ZM53.3 10H65.6V8H53.3V10ZM64.6 9V75H66.6V9H64.6ZM129.952 12.2L129.432 13.0542L129.441 13.0597L129.952 12.2ZM140.552 24L139.65 24.4331L139.654 24.4402L139.657 24.4472L140.552 24ZM140.552 60.1L139.655 59.6574L139.652 59.6623L140.552 60.1ZM129.952 71.9L130.462 72.7597L130.472 72.7542L129.952 71.9ZM97.5516 71.9L97.0316 72.7542L97.0407 72.7597L97.5516 71.9ZM86.8516 60.1L85.9502 60.5331L85.9536 60.5402L85.9571 60.5472L86.8516 60.1ZM86.8516 24L85.9548 23.5574L85.9525 23.5623L86.8516 24ZM97.5516 12.2L98.0624 13.0597L98.0715 13.0542L97.5516 12.2ZM97.4516 22.6L96.6878 21.9545L96.6869 21.9555L97.4516 22.6ZM97.4516 61.5L96.6825 62.1391L96.6873 62.145L96.6923 62.1508L97.4516 61.5ZM129.952 61.5L129.188 60.8545L129.187 60.8555L129.952 61.5ZM129.952 22.6L129.182 23.2391L129.187 23.245L129.192 23.2508L129.952 22.6ZM113.752 9C119.796 9 125.011 10.3633 129.432 13.0542L130.472 11.3458C125.692 8.43674 120.107 7 113.752 7V9ZM129.441 13.0597C133.86 15.6858 137.263 19.4653 139.65 24.4331L141.453 23.5669C138.907 18.268 135.243 14.1809 130.462 11.3403L129.441 13.0597ZM139.657 24.4472C142.107 29.3474 143.352 35.1877 143.352 42H145.352C145.352 34.9456 144.063 28.786 141.446 23.5528L139.657 24.4472ZM143.352 42C143.352 48.8118 142.107 54.6878 139.655 59.6575L141.448 60.5425C144.062 55.2455 145.352 49.0549 145.352 42H143.352ZM139.652 59.6623C137.266 64.5651 133.86 68.3502 129.432 71.0458L130.472 72.7542C135.243 69.8498 138.904 65.7683 141.451 60.5377L139.652 59.6623ZM129.441 71.0403C125.018 73.6681 119.801 75 113.752 75V77C120.102 77 125.685 75.5986 130.462 72.7597L129.441 71.0403ZM113.752 75C107.702 75 102.485 73.6681 98.0624 71.0403L97.0407 72.7597C101.818 75.5986 107.401 77 113.752 77V75ZM98.0715 71.0458C93.6406 68.3487 90.1998 64.5604 87.746 59.6528L85.9571 60.5472C88.57 65.7729 92.2625 69.8513 97.0316 72.7542L98.0715 71.0458ZM87.7529 59.6669C85.3638 54.6949 84.1516 48.8154 84.1516 42H82.1516C82.1516 49.0512 83.406 55.2385 85.9502 60.5331L87.7529 59.6669ZM84.1516 42C84.1516 35.1841 85.3639 29.3403 87.7507 24.4377L85.9525 23.5623C83.4059 28.7931 82.1516 34.9492 82.1516 42H84.1516ZM87.7483 24.4425C90.2023 19.47 93.6404 15.6872 98.0624 13.0597L97.0407 11.3403C92.2627 14.1794 88.5675 18.2634 85.9548 23.5574L87.7483 24.4425ZM98.0715 13.0542C102.492 10.3633 107.707 9 113.752 9V7C107.396 7 101.811 8.43674 97.0316 11.3458L98.0715 13.0542ZM113.752 14.5C106.626 14.5 100.9 16.9703 96.6878 21.9545L98.2154 23.2455C102.003 18.763 107.143 16.5 113.752 16.5V14.5ZM96.6869 21.9555C92.5551 26.8576 90.5516 33.5813 90.5516 42H92.5516C92.5516 33.8854 94.4813 27.6757 98.2162 23.2445L96.6869 21.9555ZM90.5516 42C90.5516 50.4197 92.5555 57.1728 96.6825 62.1391L98.2207 60.8609C94.4809 56.3605 92.5516 50.1136 92.5516 42H90.5516ZM96.6923 62.1508C100.906 67.0667 106.631 69.5 113.752 69.5V67.5C107.138 67.5 101.997 65.2667 98.2108 60.8492L96.6923 62.1508ZM113.752 69.5C120.872 69.5 126.568 67.0664 130.716 62.1445L129.187 60.8555C125.469 65.2669 120.365 67.5 113.752 67.5V69.5ZM130.715 62.1455C134.912 57.179 136.952 50.4234 136.952 42H134.952C134.952 50.1099 132.991 56.3543 129.188 60.8545L130.715 62.1455ZM136.952 42C136.952 33.5775 134.913 26.8515 130.711 21.9492L129.192 23.2508C132.99 27.6819 134.952 33.8891 134.952 42H136.952ZM130.721 21.9609C126.574 16.9706 120.877 14.5 113.752 14.5V16.5C120.36 16.5 125.463 18.7627 129.182 23.2391L130.721 21.9609ZM204.756 12.2L204.236 13.0542L204.245 13.0597L204.756 12.2ZM215.356 24L214.455 24.4331L214.458 24.4402L214.462 24.4472L215.356 24ZM215.356 60.1L214.459 59.6574L214.457 59.6623L215.356 60.1ZM204.756 71.9L205.267 72.7597L205.276 72.7542L204.756 71.9ZM172.356 71.9L171.836 72.7542L171.845 72.7597L172.356 71.9ZM161.656 60.1L160.755 60.5331L160.758 60.5402L160.762 60.5472L161.656 60.1ZM161.656 24L160.759 23.5574L160.757 23.5623L161.656 24ZM172.356 12.2L172.867 13.0597L172.876 13.0542L172.356 12.2ZM172.256 22.6L171.492 21.9545L171.492 21.9555L172.256 22.6ZM172.256 61.5L171.487 62.1391L171.492 62.145L171.497 62.1508L172.256 61.5ZM204.756 61.5L203.992 60.8545L203.992 60.8555L204.756 61.5ZM204.756 22.6L203.987 23.2391L203.992 23.245L203.997 23.2508L204.756 22.6ZM188.556 9C194.601 9 199.815 10.3633 204.236 13.0542L205.276 11.3458C200.497 8.43674 194.911 7 188.556 7V9ZM204.245 13.0597C208.665 15.6858 212.068 19.4653 214.455 24.4331L216.258 23.5669C213.711 18.268 210.048 14.1809 205.267 11.3403L204.245 13.0597ZM214.462 24.4472C216.912 29.3474 218.156 35.1877 218.156 42H220.156C220.156 34.9456 218.867 28.786 216.251 23.5528L214.462 24.4472ZM218.156 42C218.156 48.8118 216.912 54.6878 214.46 59.6575L216.253 60.5425C218.867 55.2455 220.156 49.0549 220.156 42H218.156ZM214.457 59.6623C212.07 64.5651 208.665 68.3502 204.236 71.0458L205.276 72.7542C210.048 69.8498 213.709 65.7683 216.255 60.5377L214.457 59.6623ZM204.245 71.0403C199.823 73.6681 194.605 75 188.556 75V77C194.907 77 200.489 75.5986 205.267 72.7597L204.245 71.0403ZM188.556 75C182.507 75 177.289 73.6681 172.867 71.0403L171.845 72.7597C176.623 75.5986 182.205 77 188.556 77V75ZM172.876 71.0458C168.445 68.3487 165.005 64.5604 162.551 59.6528L160.762 60.5472C163.375 65.7729 167.067 69.8513 171.836 72.7542L172.876 71.0458ZM162.558 59.6669C160.168 54.6949 158.956 48.8154 158.956 42H156.956C156.956 49.0512 158.211 55.2385 160.755 60.5331L162.558 59.6669ZM158.956 42C158.956 35.1841 160.169 29.3403 162.555 24.4377L160.757 23.5623C158.211 28.7931 156.956 34.9492 156.956 42H158.956ZM162.553 24.4425C165.007 19.47 168.445 15.6872 172.867 13.0597L171.845 11.3403C167.067 14.1794 163.372 18.2634 160.76 23.5574L162.553 24.4425ZM172.876 13.0542C177.297 10.3633 182.511 9 188.556 9V7C182.201 7 176.615 8.43674 171.836 11.3458L172.876 13.0542ZM188.556 14.5C181.431 14.5 175.704 16.9703 171.492 21.9545L173.02 23.2455C176.808 18.763 181.948 16.5 188.556 16.5V14.5ZM171.492 21.9555C167.36 26.8576 165.356 33.5813 165.356 42H167.356C167.356 33.8854 169.286 27.6757 173.021 23.2445L171.492 21.9555ZM165.356 42C165.356 50.4197 167.36 57.1728 171.487 62.1391L173.025 60.8609C169.286 56.3605 167.356 50.1136 167.356 42H165.356ZM171.497 62.1508C175.711 67.0667 181.436 69.5 188.556 69.5V67.5C181.943 67.5 176.802 65.2667 173.016 60.8492L171.497 62.1508ZM188.556 69.5C195.676 69.5 201.372 67.0664 205.521 62.1445L203.992 60.8555C200.273 65.2669 195.17 67.5 188.556 67.5V69.5ZM205.52 62.1455C209.717 57.179 211.756 50.4234 211.756 42H209.756C209.756 50.1099 207.795 56.3543 203.992 60.8545L205.52 62.1455ZM211.756 42C211.756 33.5775 209.717 26.8515 205.516 21.9492L203.997 23.2508C207.795 27.6819 209.756 33.8891 209.756 42H211.756ZM205.525 21.9609C201.379 16.9706 195.681 14.5 188.556 14.5V16.5C195.164 16.5 200.267 18.7627 203.987 23.2391L205.525 21.9609ZM279.661 2H280.661V0.999998H279.661V2ZM279.661 75V76H280.661V75H279.661ZM272.661 75L271.663 75.0574L271.717 76H272.661V75ZM272.161 66.3L273.159 66.2426L272.944 62.4977L271.267 65.8528L272.161 66.3ZM265.361 73.4L265.861 74.2659L265.867 74.2624L265.361 73.4ZM238.361 69.1L237.607 69.757L237.612 69.7627L237.617 69.7684L238.361 69.1ZM238.361 31L237.612 30.337L237.612 30.3377L238.361 31ZM264.861 26.4L264.374 27.2732L264.382 27.2779L264.861 26.4ZM271.661 32.8L270.803 33.3145L272.661 36.4103V32.8H271.661ZM271.661 2V0.999998H270.661V2H271.661ZM267.361 64L266.603 63.3479L266.595 63.3568L267.361 64ZM267.361 36L266.595 36.6432L266.603 36.652L267.361 36ZM244.461 36.2L245.233 36.8357L245.239 36.8283L244.461 36.2ZM244.461 63.9L243.683 64.5284L243.689 64.5357L244.461 63.9ZM278.661 2V75H280.661V2H278.661ZM279.661 74H272.661V76H279.661V74ZM273.659 74.9426L273.159 66.2426L271.163 66.3574L271.663 75.0574L273.659 74.9426ZM271.267 65.8528C269.894 68.5985 267.769 70.8269 264.855 72.5376L265.867 74.2624C269.086 72.3731 271.495 69.8682 273.055 66.7472L271.267 65.8528ZM264.861 72.5341C262.03 74.1697 258.773 75 255.061 75V77C259.082 77 262.692 76.0969 265.861 74.2659L264.861 72.5341ZM255.061 75C248.303 75 243.022 72.7915 239.105 68.4316L237.617 69.7684C241.966 74.6085 247.819 77 255.061 77V75ZM239.115 68.443C235.25 64.0078 233.261 57.8999 233.261 50H231.261C231.261 58.2335 233.339 64.8588 237.607 69.757L239.115 68.443ZM233.261 50C233.261 42.0992 235.25 36.0285 239.11 31.6623L237.612 30.3377C233.338 35.1715 231.261 41.7674 231.261 50H233.261ZM239.11 31.663C243.029 27.2383 248.308 25 255.061 25V23C247.814 23 241.96 25.4283 237.612 30.337L239.11 31.663ZM255.061 25C258.577 25 261.673 25.7657 264.374 27.2732L265.348 25.5268C262.316 23.8343 258.878 23 255.061 23V25ZM264.382 27.2779C267.171 28.7992 269.302 30.8119 270.803 33.3145L272.518 32.2855C270.82 29.4548 268.417 27.2008 265.34 25.5221L264.382 27.2779ZM272.661 32.8V2H270.661V32.8H272.661ZM271.661 3H279.661V0.999998H271.661V3ZM255.961 70C261.022 70 265.116 68.2277 268.127 64.6432L266.595 63.3568C264.006 66.439 260.5 68 255.961 68V70ZM268.119 64.652C271.181 61.0921 272.661 56.372 272.661 50.6H270.661C270.661 56.028 269.275 60.2412 266.603 63.348L268.119 64.652ZM272.661 50.6V49.4H270.661V50.6H272.661ZM272.661 49.4C272.661 43.628 271.181 38.9079 268.119 35.348L266.603 36.652C269.275 39.7588 270.661 43.972 270.661 49.4H272.661ZM268.127 35.3568C265.116 31.7723 261.022 30 255.961 30V32C260.5 32 264.006 33.561 266.595 36.6432L268.127 35.3568ZM255.961 30C250.824 30 246.692 31.8463 243.683 35.5717L245.239 36.8283C247.83 33.6204 251.365 32 255.961 32V30ZM243.689 35.5643C240.7 39.1933 239.261 44.0422 239.261 50H241.261C241.261 44.3578 242.621 40.0067 245.233 36.8357L243.689 35.5643ZM239.261 50C239.261 55.959 240.701 60.8362 243.683 64.5283L245.239 63.2717C242.621 60.0304 241.261 55.641 241.261 50H239.261ZM243.689 64.5357C246.7 68.1925 250.831 70 255.961 70V68C251.358 68 247.821 66.4075 245.233 63.2643L243.689 64.5357ZM297.849 13.8L297.121 14.4854L297.142 14.5074L297.164 14.5282L297.849 13.8ZM297.849 5.09999L297.142 4.39289L297.142 4.39289L297.849 5.09999ZM306.549 5.09999L305.821 5.78536L305.842 5.80743L305.864 5.82819L306.549 5.09999ZM306.549 13.8L305.842 13.0929L305.842 13.0929L306.549 13.8ZM306.249 75V76H307.249V75H306.249ZM298.249 75H297.249V76H298.249V75ZM298.249 25V24H297.249V25H298.249ZM306.249 25H307.249V24H306.249V25ZM302.249 14.4C300.661 14.4 299.453 13.9366 298.535 13.0718L297.164 14.5282C298.512 15.7967 300.237 16.4 302.249 16.4V14.4ZM298.577 13.1146C297.713 12.1958 297.249 10.988 297.249 9.4H295.249C295.249 11.412 295.853 13.1376 297.121 14.4854L298.577 13.1146ZM297.249 9.4C297.249 7.81026 297.713 6.65065 298.556 5.8071L297.142 4.39289C295.852 5.68267 295.249 7.38973 295.249 9.4H297.249ZM298.556 5.8071C299.478 4.88509 300.679 4.4 302.249 4.4V2.4C300.22 2.4 298.487 3.04824 297.142 4.39289L298.556 5.8071ZM302.249 4.4C303.821 4.4 304.973 4.88477 305.821 5.78536L307.277 4.41463C305.992 3.04856 304.278 2.4 302.249 2.4V4.4ZM305.864 5.82819C306.764 6.67581 307.249 7.82854 307.249 9.4H309.249C309.249 7.37146 308.601 5.65752 307.235 4.37179L305.864 5.82819ZM307.249 9.4C307.249 10.9704 306.764 12.1709 305.842 13.0929L307.256 14.5071C308.601 13.1625 309.249 11.4296 309.249 9.4H307.249ZM305.842 13.0929C304.999 13.9364 303.839 14.4 302.249 14.4V16.4C304.259 16.4 305.967 15.7969 307.256 14.5071L305.842 13.0929ZM306.249 74H298.249V76H306.249V74ZM299.249 75V25H297.249V75H299.249ZM298.249 26H306.249V24H298.249V26ZM305.249 25V75H307.249V25H305.249ZM336.712 25H335.712V26H336.712V25ZM353.412 25H354.412V24H353.412V25ZM353.412 31.9V32.9H354.412V31.9H353.412ZM336.712 31.9V30.9H335.712V31.9H336.712ZM336.712 75V76H337.712V75H336.712ZM328.712 75H327.712V76H328.712V75ZM328.712 31.9H329.712V30.9H328.712V31.9ZM318.712 31.9H317.712V32.9H318.712V31.9ZM318.712 25V24H317.712V25H318.712ZM328.712 25V26H329.712V25H328.712ZM332.912 5.6L333.61 6.31557L333.61 6.31557L332.912 5.6ZM350.012 2.1L349.749 3.06482L349.759 3.06761L350.012 2.1ZM353.612 3.8L354.563 4.10743L354.769 3.46959L354.258 3.03661L353.612 3.8ZM351.512 10.3L350.982 11.148L352.069 11.8276L352.463 10.6074L351.512 10.3ZM336.712 26H353.412V24H336.712V26ZM352.412 25V31.9H354.412V25H352.412ZM353.412 30.9H336.712V32.9H353.412V30.9ZM335.712 31.9V75H337.712V31.9H335.712ZM336.712 74H328.712V76H336.712V74ZM329.712 75V31.9H327.712V75H329.712ZM328.712 30.9H318.712V32.9H328.712V30.9ZM319.712 31.9V25H317.712V31.9H319.712ZM318.712 26H328.712V24H318.712V26ZM329.712 25V16.6H327.712V25H329.712ZM329.712 16.6C329.712 12.2182 331.037 8.82776 333.61 6.31557L332.213 4.88442C329.187 7.83889 327.712 11.7817 327.712 16.6H329.712ZM333.61 6.31557C336.164 3.82255 339.943 2.5 345.112 2.5V0.499999C339.614 0.499999 335.259 1.91078 332.213 4.88443L333.61 6.31557ZM345.112 2.5C346.839 2.5 348.382 2.69197 349.749 3.06476L350.275 1.13523C348.708 0.708022 346.985 0.499999 345.112 0.499999V2.5ZM349.759 3.06761C351.202 3.44386 352.249 3.95712 352.966 4.56338L354.258 3.03661C353.241 2.1762 351.889 1.55613 350.264 1.13238L349.759 3.06761ZM352.66 3.49257L350.56 9.99257L352.463 10.6074L354.563 4.10743L352.66 3.49257ZM352.042 9.452C350.258 8.33713 348.167 7.79999 345.812 7.79999V9.79999C347.856 9.79999 349.566 10.2629 350.982 11.148L352.042 9.452ZM345.812 7.79999C342.638 7.79999 340.072 8.54881 338.3 10.2232C336.518 11.9076 335.712 14.3643 335.712 17.4H337.712C337.712 14.7024 338.423 12.859 339.674 11.6768C340.935 10.4845 342.919 9.79999 345.812 9.79999V7.79999ZM335.712 17.4V25H337.712V17.4H335.712ZM383.07 83.4L383.997 83.7736L383.997 83.7733L383.07 83.4ZM376.57 93.5L375.942 92.7212L375.936 92.7265L375.929 92.7318L376.57 93.5ZM360.87 95.5L360.498 96.4286L360.511 96.4333L360.87 95.5ZM356.27 92.3L355.345 91.9193L355.097 92.5203L355.546 92.9905L356.27 92.3ZM359.07 85.5L359.879 84.913L358.827 83.4621L358.145 85.1193L359.07 85.5ZM372.27 87.7L371.675 86.8958L371.655 86.9105L371.636 86.926L372.27 87.7ZM376.27 81.4L375.341 81.0286L375.336 81.0409L375.332 81.0534L376.27 81.4ZM378.87 74.9L379.798 75.2714L379.95 74.8913L379.792 74.5137L378.87 74.9ZM357.97 25V24H356.467L357.047 25.3863L357.97 25ZM367.07 25L368.003 24.642L367.757 24H367.07V25ZM379.57 57.6L380.514 57.2711L380.509 57.2564L380.503 57.242L379.57 57.6ZM382.67 66.5L381.725 66.8289L382.649 69.4819L383.609 66.8417L382.67 66.5ZM386.27 56.6L385.332 56.2528L385.33 56.2583L386.27 56.6ZM397.97 25V24H397.273L397.032 24.6528L397.97 25ZM406.57 25L407.497 25.3733L408.05 24H406.57V25ZM382.142 83.0264C380.234 87.7628 378.147 90.9448 375.942 92.7212L377.197 94.2788C379.792 92.1885 382.038 88.6372 383.997 83.7736L382.142 83.0264ZM375.929 92.7318C373.746 94.5515 370.888 95.5 367.27 95.5V97.5C371.251 97.5 374.593 96.4485 377.21 94.2682L375.929 92.7318ZM367.27 95.5C364.817 95.5 362.814 95.1764 361.229 94.5667L360.511 96.4333C362.392 97.1569 364.655 97.5 367.27 97.5V95.5ZM361.241 94.5715C359.724 93.9646 358.307 92.986 356.993 91.6095L355.546 92.9905C357.032 94.5473 358.682 95.7021 360.498 96.4285L361.241 94.5715ZM357.194 92.6808L359.994 85.8808L358.145 85.1193L355.345 91.9193L357.194 92.6808ZM358.26 86.087C360.393 89.0287 363.402 90.5 367.17 90.5V88.5C364.004 88.5 361.613 87.3046 359.879 84.913L358.26 86.087ZM367.17 90.5C369.329 90.5 371.254 89.8233 372.903 88.474L371.636 86.926C370.352 87.9767 368.877 88.5 367.17 88.5V90.5ZM372.864 88.5042C374.63 87.1988 376.049 84.8803 377.208 81.7467L375.332 81.0534C374.223 84.053 372.976 85.9346 371.675 86.8958L372.864 88.5042ZM377.198 81.7714L379.798 75.2714L377.941 74.5286L375.341 81.0286L377.198 81.7714ZM379.792 74.5137L358.892 24.6137L357.047 25.3863L377.947 75.2863L379.792 74.5137ZM357.97 26H367.07V24H357.97V26ZM366.136 25.358L378.636 57.958L380.503 57.242L368.003 24.642L366.136 25.358ZM378.625 57.9289L381.725 66.8289L383.614 66.1711L380.514 57.2711L378.625 57.9289ZM383.609 66.8417L387.209 56.9417L385.33 56.2583L381.73 66.1583L383.609 66.8417ZM387.207 56.9472L398.907 25.3472L397.032 24.6528L385.332 56.2528L387.207 56.9472ZM397.97 26H406.57V24H397.97V26ZM405.642 24.6267L382.142 83.0267L383.997 83.7733L407.497 25.3733L405.642 24.6267Z" fill="#FF7373"/>
</svg>
